<svg width="100%" height="100%">
	<style type="text/css">
		.svg-fill{fill:#ed453e;}
	</style>
	<defs>
		<pattern id="svg-pattern" class="svg-pattern" x="0" y="0" width="30" height="30" patternUnits="userSpaceOnUse">
			<g class="svg-pattern__shape">
				<polygon class="svg-fill" points="12.35,7.86 9.97,7.86 9.97,5.49 7.86,5.49 7.86,7.86 5.49,7.86 5.49,9.97 7.86,9.97 7.86,12.35 9.97,12.35 
					9.97,9.97 12.35,9.97 	"/>
				<polygon class="svg-fill" points="12.23,0 12.23,2.11 15.72,2.11 15.72,5.56 17.83,5.56 17.83,0 	"/>
				<polygon class="svg-fill" points="2.11,2.11 5.6,2.11 5.6,0 0,0 0,5.56 2.11,5.56 	"/>
				<polygon class="svg-fill" points="2.11,12.19 0,12.19 0,17.83 5.6,17.83 5.6,15.72 2.11,15.72 	"/>
				<polygon class="svg-fill" points="15.72,15.72 12.23,15.72 12.23,17.83 17.83,17.83 17.83,12.19 15.72,12.19 	"/>
			</g>
		</pattern>
	</defs>

	<rect x="0" y="0" width="100%" height="100%" fill="url(#svg-pattern)" />
</svg>
