<?xml version="1.0" encoding="utf-8"?>
<!-- Generator: Adobe Illustrator 23.0.6, SVG Export Plug-In . SVG Version: 6.00 Build 0)  -->
<svg version="1.1" id="Layer_1" xmlns="http://www.w3.org/2000/svg" xmlns:xlink="http://www.w3.org/1999/xlink" x="0px" y="0px"
	 viewBox="0 0 1152 700" style="enable-background:new 0 0 1152 700;" xml:space="preserve">
<style type="text/css">
	.st0{fill:#DC3137;}
</style>
<g>
	<polygon class="st0" points="12.4,7.9 10,7.9 10,5.5 7.9,5.5 7.9,7.9 5.5,7.9 5.5,10 7.9,10 7.9,12.4 10,12.4 10,10 12.4,10 	"/>
	<polygon class="st0" points="12.2,0 12.2,2.1 15.7,2.1 15.7,5.6 17.8,5.6 17.8,0 	"/>
	<polygon class="st0" points="2.1,2.1 5.6,2.1 5.6,0 0,0 0,5.6 2.1,5.6 	"/>
	<polygon class="st0" points="2.1,12.2 0,12.2 0,17.8 5.6,17.8 5.6,15.7 2.1,15.7 	"/>
	<polygon class="st0" points="15.7,15.7 12.2,15.7 12.2,17.8 17.8,17.8 17.8,12.2 15.7,12.2 	"/>
</g>
</svg>
